<svg width="96" height="96" viewBox="0 0 96 96" fill="none" xmlns="http://www.w3.org/2000/svg">
<circle cx="48" cy="48" r="48" fill="#61072D"></circle>
<path d="M40.0898 42.4647V51.3083L46.2612 45.0664V61.8358H54.0258V34.1758H46.9469L40.0898 42.4647Z" fill="#F7F5F1"></path>
<path d="M25.5983 53.9906L19.7497 34.1758H11.5918L20.3447 61.8358H30.489L39.2418 34.1758H31.084L25.5983 53.9906Z" fill="#F7F5F1"></path>
<path d="M79.1856 34.1758H71.9655H70.2715L57.1725 50.5217H57.1624V50.5419L57.1523 50.5621H57.1624V57.4998H72.4798V50.5217H66.49L79.1856 34.1758Z" fill="#F7F5F1"></path>
<path d="M84.4072 50.5217H81.7148V34.1758L74.3535 43.705V57.4998V61.8358H81.7148V57.4998H84.4072V50.5217Z" fill="#F7F5F1"></path>
<path d="M82.543 35.0531C82.543 34.5489 82.9262 34.1758 83.4505 34.1758C83.9749 34.1758 84.348 34.559 84.348 35.0632C84.348 35.5674 83.9648 35.9505 83.4505 35.9505C82.9363 35.9505 82.543 35.5674 82.543 35.0632V35.0531ZM84.0858 35.0632C84.0858 34.6901 83.8236 34.4178 83.4505 34.4178C83.0774 34.4178 82.8052 34.68 82.8052 35.0632C82.8052 35.4463 83.0774 35.7085 83.4505 35.7085C83.8236 35.7085 84.0858 35.4463 84.0858 35.0632ZM83.0774 35.4766V34.5993H83.4808C83.7128 34.5993 83.8438 34.7102 83.8438 34.8817C83.8438 35.043 83.7531 35.1136 83.6523 35.1438L83.6825 35.1842C83.7329 35.2447 83.7632 35.2548 83.8438 35.2548V35.4766C83.6825 35.4766 83.5614 35.4464 83.4304 35.2648L83.3901 35.2043H83.3094V35.4766H83.0673H83.0774ZM83.3194 35.0027H83.4606C83.5413 35.0027 83.5917 34.9623 83.5917 34.8917C83.5917 34.8312 83.5413 34.7909 83.4606 34.7909H83.3194V35.0027Z" fill="#F7F5F1"></path>
</svg>
